<svg width="62.000000" height="62.000000" viewBox="0 0 62 62" fill="none" xmlns="http://www.w3.org/2000/svg" xmlns:xlink="http://www.w3.org/1999/xlink">
	<desc>
			Created with Pixso.
	</desc>
	<defs/>
	<path d="M31 0C13.8792 0 0 13.8792 0 31C0 48.1208 13.8792 62 31 62C48.1208 62 62 48.1208 62 31C62 13.8792 48.1208 0 31 0ZM34.2312 32.3617L34.2312 49.2273L27.2529 49.2273L27.2529 32.3623L23.7666 32.3623L23.7666 26.5504L27.2529 26.5504L27.2529 23.0609C27.2529 18.3195 29.2217 15.5 34.8145 15.5L39.4709 15.5L39.4709 21.3126L36.5603 21.3126C34.3831 21.3126 34.239 22.1249 34.239 23.6407L34.2312 26.5497L39.5039 26.5497L38.887 32.3617L34.2312 32.3617Z" clip-rule="evenodd" fill="#2B2A29" fill-opacity="1.000000" fill-rule="evenodd"/>
</svg>
