<svg width="62.000000" height="62.000000" viewBox="0 0 62 62" fill="none" xmlns="http://www.w3.org/2000/svg" xmlns:xlink="http://www.w3.org/1999/xlink">
	<desc>
			Created with Pixso.
	</desc>
	<defs/>
	<rect width="62.000000" height="62.000000" fill="#FFFFFF" fill-opacity="0"/>
	<path d="M24 0C10.7451 0 0 10.7452 0 24C0 37.2548 10.7451 48 24 48C37.2549 48 48 37.2548 48 24C48 10.7452 37.2549 0 24 0ZM26.5015 25.0542L26.5015 38.1115L21.0991 38.1115L21.0991 25.0547L18.3999 25.0547L18.3999 20.5551L21.0991 20.5551L21.0991 17.8536C21.0991 14.1828 22.623 12 26.9531 12L30.5581 12L30.5581 16.5001L28.3047 16.5001C26.6191 16.5001 26.5076 17.129 26.5076 18.3025L26.5015 20.5546L30.5835 20.5546L30.106 25.0542L26.5015 25.0542Z" clip-rule="evenodd" fill="#2B2A29" fill-opacity="1.000000" fill-rule="evenodd"/>
</svg>
