<svg width="62.000000" height="62.000000" viewBox="0 0 62 62" fill="none" xmlns="http://www.w3.org/2000/svg" xmlns:xlink="http://www.w3.org/1999/xlink">
	<desc>
			Created with Pixso.
	</desc>
	<defs/>
	<path d="M24 0C10.7451 0 0 10.7452 0 24C0 37.2548 10.7451 48 24 48C37.2549 48 48 37.2548 48 24C48 10.7452 37.2549 0 24 0ZM23.9973 11.2L24.0012 11.2C27.4749 11.2 27.9097 11.2152 29.2747 11.2773C30.6372 11.3397 31.5679 11.5555 32.384 11.872C33.2266 12.1987 33.9387 12.636 34.6506 13.348C35.3625 14.0595 35.8 14.7736 36.1279 15.6155C36.4426 16.4294 36.6587 17.3596 36.7227 18.7222C36.7839 20.0876 36.8 20.5238 36.8 24.0001C36.8 27.4764 36.7839 27.9116 36.7227 29.277C36.6587 30.6392 36.4426 31.5695 36.1279 32.3837C35.8 33.2253 35.3625 33.9395 34.6506 34.6509C33.9395 35.3629 33.2263 35.8013 32.3848 36.1282C31.5703 36.4448 30.6392 36.6605 29.2764 36.7229C27.9111 36.785 27.4761 36.8003 23.9995 36.8003C20.5237 36.8003 20.0876 36.785 18.7222 36.7229C17.3599 36.6605 16.4294 36.4448 15.615 36.1282C14.7737 35.8013 14.0596 35.3629 13.3484 34.6509C12.6365 33.9395 12.1992 33.2253 11.8721 32.3834C11.5557 31.5695 11.3401 30.6394 11.2773 29.2767C11.2156 27.9114 11.2 27.4764 11.2 24.0001C11.2 20.5238 11.2161 20.0873 11.2771 18.7219C11.3384 17.3598 11.5544 16.4294 11.8718 15.6152C12.1997 14.7736 12.637 14.0595 13.3491 13.348C14.0605 12.6363 14.7747 12.1989 15.6167 11.872C16.4304 11.5555 17.3606 11.3397 18.7234 11.2773C20.0881 11.2152 20.5247 11.2 23.9973 11.2Z" clip-rule="evenodd" fill="#0A507A" fill-opacity="1.000000" fill-rule="evenodd"/>
	<path d="M27.5144 17.4451C27.2554 17.4449 27.0156 17.4449 26.7927 17.4452L26.7927 17.442C24.407 17.4447 23.9495 17.4607 22.7686 17.514C21.5205 17.5714 20.843 17.7794 20.3918 17.9554C19.7944 18.1879 19.3677 18.4652 18.9197 18.9132C18.4717 19.3612 18.1938 19.7879 17.9619 20.3853C17.7866 20.8364 17.5781 21.5138 17.521 22.7618C17.4597 24.1111 17.4475 24.5143 17.4475 27.9325C17.4475 31.3507 17.4597 31.756 17.521 33.1054C17.5779 34.3534 17.7866 35.0308 17.9619 35.4814C18.1943 36.079 18.4717 36.5046 18.9197 36.9526C19.3677 37.4006 19.7944 37.678 20.3918 37.91C20.8433 38.0851 21.5205 38.2937 22.7686 38.3513C24.1179 38.4127 24.5229 38.426 27.9409 38.426C31.3586 38.426 31.7639 38.4127 33.1133 38.3513C34.3613 38.2943 35.0391 38.0862 35.4897 37.9102C36.0874 37.6782 36.5127 37.4009 36.9607 36.9529C37.4087 36.5051 37.6868 36.0798 37.9187 35.4825C38.0938 35.0318 38.3025 34.3544 38.3594 33.1064C38.4209 31.7571 38.4341 31.3517 38.4341 27.9357C38.4341 24.5197 38.4209 24.1144 38.3594 22.765C38.3027 21.517 38.0938 20.8397 37.9187 20.389C37.686 19.7916 37.4087 19.365 36.9607 18.917C36.5129 18.4689 36.0872 18.1917 35.4897 17.9596C35.0386 17.7844 34.3613 17.5759 33.1133 17.5188C31.7637 17.4575 31.3586 17.4452 27.9409 17.4452C27.7932 17.4452 27.6511 17.4451 27.5144 17.4451ZM34.7734 19.5706C33.9255 19.5706 33.2375 20.2578 33.2375 21.1061C33.2375 21.954 33.9255 22.6421 34.7734 22.6421C35.6216 22.6421 36.3096 21.954 36.3096 21.1061C36.3096 20.2581 35.6216 19.5701 34.7734 19.5701L34.7734 19.5706ZM21.3674 27.9387C21.3674 24.3086 24.3105 21.3654 27.9407 21.3652C31.5708 21.3652 34.5132 24.3085 34.5132 27.9387C34.5132 31.5688 31.571 34.5107 27.9409 34.5107C24.3108 34.5107 21.3674 31.5688 21.3674 27.9387Z" clip-rule="evenodd" fill="#0A507A" fill-opacity="1.000000" fill-rule="evenodd"/>
	<path d="M31 25.48C34.04 25.48 36.51 27.95 36.51 31C36.51 34.04 34.04 36.51 31 36.51C27.95 36.51 25.49 34.04 25.49 31C25.49 27.95 27.95 25.48 31 25.48Z" fill="#0A507A" fill-opacity="1.000000" fill-rule="nonzero"/>
</svg>
