<svg width="62.000000" height="62.000000" viewBox="0 0 62 62" fill="none" xmlns="http://www.w3.org/2000/svg" xmlns:xlink="http://www.w3.org/1999/xlink">
	<desc>
			Created with Pixso.
	</desc>
	<defs/>
	<path id="Combined-Shape" d="M31 0C13.8792 0 0 13.8794 0 31C0 48.1206 13.8792 62 31 62C48.1208 62 62 48.1206 62 31C62 13.8794 48.1208 0 31 0ZM30.9963 14.4668L31.0015 14.4668C35.4885 14.4668 36.05 14.4868 37.813 14.5669C39.5732 14.6475 40.7751 14.9263 41.8293 15.335C42.9177 15.7568 43.8374 16.3218 44.7571 17.2417C45.6768 18.1606 46.2417 19.083 46.6653 20.1704C47.0718 21.2217 47.3508 22.4229 47.4333 24.1831C47.5127 25.9468 47.5334 26.5103 47.5334 31.0005C47.5334 35.4907 47.5127 36.0527 47.4333 37.8164C47.3508 39.5757 47.0718 40.7778 46.6653 41.8291C46.2417 42.9165 45.6768 43.8389 44.7571 44.7578C43.8384 45.6772 42.9175 46.2437 41.8303 46.666C40.7783 47.0747 39.5754 47.3535 37.8154 47.4341C36.0518 47.5142 35.49 47.5342 30.9995 47.5342C26.5095 47.5342 25.9465 47.5142 24.1829 47.4341C22.4231 47.3535 21.2212 47.0747 20.1694 46.666C19.0825 46.2437 18.1602 45.6772 17.2415 44.7578C16.3223 43.8389 15.7573 42.9165 15.3347 41.8291C14.9263 40.7778 14.6475 39.5762 14.5667 37.8159C14.4866 36.0527 14.4666 35.4907 14.4666 31.0005C14.4666 26.5103 14.4873 25.9463 14.5662 24.1826C14.6455 22.4233 14.9243 21.2217 15.3342 20.1699C15.7581 19.083 16.323 18.1606 17.2427 17.2417C18.1616 16.3223 19.084 15.7573 20.1714 15.335C21.2227 14.9263 22.4241 14.6475 24.1843 14.5669C25.947 14.4868 26.511 14.4668 30.9963 14.4668Z" clip-rule="evenodd" fill="#FFFFFF" fill-opacity="1.000000" fill-rule="evenodd"/>
	<path id="Combined-Shape" d="M30.4504 17.4458C30.1162 17.4458 29.8064 17.4458 29.5183 17.4458L29.5183 17.4419C26.437 17.4453 25.8459 17.4658 24.3206 17.5347C22.7085 17.6089 21.8333 17.8774 21.2505 18.105C20.479 18.4053 19.928 18.7637 19.3491 19.3423C18.7705 19.9209 18.4116 20.4722 18.1121 21.2437C17.8857 21.8262 17.6162 22.7012 17.5425 24.3135C17.4634 26.0562 17.4475 26.5771 17.4475 30.9922C17.4475 35.4072 17.4634 35.9307 17.5425 37.6738C17.616 39.2856 17.8857 40.1606 18.1121 40.7427C18.4124 41.5146 18.7705 42.0645 19.3491 42.6431C19.928 43.2217 20.479 43.5801 21.2505 43.8799C21.8337 44.106 22.7085 44.3755 24.3206 44.4497C26.0635 44.5288 26.5867 44.5464 31.0015 44.5464C35.416 44.5464 35.9395 44.5288 37.6824 44.4497C39.2944 44.376 40.1702 44.1074 40.7522 43.8799C41.5242 43.5806 42.0735 43.2222 42.6521 42.6436C43.2307 42.0649 43.5898 41.5156 43.8894 40.7441C44.1157 40.1621 44.385 39.2871 44.4587 37.6753C44.5381 35.9321 44.5552 35.4087 44.5552 30.9961C44.5552 26.584 44.5381 26.0605 44.4587 24.3174C44.3855 22.7056 44.1157 21.8306 43.8894 21.2485C43.5891 20.4771 43.2307 19.9258 42.6521 19.3472C42.0737 18.7686 41.5237 18.4102 40.7522 18.1104C40.1694 17.8843 39.2944 17.6147 37.6824 17.541C35.9392 17.4619 35.416 17.4458 31.0015 17.4458C30.8108 17.4458 30.6272 17.4458 30.4504 17.4458ZM39.8274 20.1909C38.7319 20.1909 37.8433 21.0786 37.8433 22.1743C37.8433 23.2695 38.7319 24.1582 39.8274 24.1582C40.9226 24.1582 41.8113 23.2695 41.8113 22.1743C41.8113 21.0791 40.9226 20.1899 39.8274 20.1899L39.8274 20.1909ZM22.511 31.0005C22.511 26.3115 26.3125 22.5098 31.0012 22.5098C35.6902 22.5098 39.4907 26.3115 39.4907 31.0005C39.4907 35.6895 35.6904 39.4893 31.0015 39.4893C26.3125 39.4893 22.511 35.6895 22.511 31.0005Z" clip-rule="evenodd" fill="#FFFFFF" fill-opacity="1.000000" fill-rule="evenodd"/>
	<path id="Shape" d="M31 25.48C34.04 25.48 36.51 27.95 36.51 31C36.51 34.04 34.04 36.51 31 36.51C27.95 36.51 25.49 34.04 25.49 31C25.49 27.95 27.95 25.48 31 25.48Z" fill="#FFFFFF" fill-opacity="1.000000" fill-rule="nonzero"/>
</svg>
