<svg width="62.000000" height="62.000000" viewBox="0 0 62 62" fill="none" xmlns="http://www.w3.org/2000/svg" xmlns:xlink="http://www.w3.org/1999/xlink">
	<desc>
			Created with Pixso.
	</desc>
	<defs/>
	<path d="M0 31C0 48.1206 13.8794 62 31 62C48.1206 62 62 48.1206 62 31C62 13.8794 48.1206 0 31 0C13.8794 0 0 13.8794 0 31ZM50.4546 29.8135C50.4507 39.9746 42.1846 48.2427 32.0215 48.2466L32.0137 48.2466C28.9287 48.2456 25.897 47.4717 23.2046 46.0029L13.4331 48.5664L16.0479 39.0142C14.4351 36.2188 13.5859 33.0474 13.5874 29.7988C13.5913 19.6353 21.8608 11.3662 32.021 11.3662C36.9521 11.3687 41.5806 13.2881 45.061 16.7725C48.541 20.2568 50.4565 24.8877 50.4546 29.8135Z" clip-rule="evenodd" fill="#FFFFFF" fill-opacity="1.000000" fill-rule="evenodd"/>
	<path d="M23.6582 42.666L17.8594 44.187L19.4072 38.5332L19.0425 37.9536C17.5088 35.5142 16.6992 32.6948 16.7002 29.7998C16.7036 21.3525 23.5767 14.48 32.0278 14.48C36.1201 14.4814 39.9668 16.0771 42.8599 18.9731C45.7524 21.8691 47.3442 25.7183 47.3428 29.8125C47.3394 38.2603 40.4663 45.1338 32.022 45.1338L32.0156 45.1338C29.2661 45.1328 26.5698 44.394 24.2173 42.998L23.6582 42.666ZM40.4263 33.6592C40.8867 33.8896 41.1938 34.0054 41.3086 34.1973C41.4238 34.3892 41.4238 35.3115 41.04 36.3877C40.6562 37.4634 38.8164 38.4453 37.9312 38.5776C37.1377 38.6963 36.1338 38.7456 35.0303 38.395C34.3613 38.1826 33.5034 37.8994 32.4043 37.4248C27.7842 35.4297 24.7666 30.7773 24.5361 30.4702C24.3057 30.1626 22.6553 27.9727 22.6553 25.7056C22.6553 23.4385 23.8452 22.3242 24.2676 21.8628C24.6899 21.4019 25.189 21.2866 25.4956 21.2866C25.8027 21.2866 26.1104 21.2896 26.3784 21.3027C26.4116 21.3047 26.4463 21.3042 26.4819 21.3042C26.75 21.3027 27.085 21.3008 27.415 22.0938C27.7988 23.0156 28.7197 25.2827 28.835 25.5137C28.9502 25.7441 29.0269 26.0127 28.8735 26.3203C28.7197 26.6274 28.6431 26.8198 28.4126 27.0889C28.1826 27.3574 27.9292 27.6895 27.7217 27.8955C27.4912 28.1255 27.2515 28.3745 27.52 28.8359C27.7886 29.2969 28.7129 30.8052 30.082 32.0264C31.8413 33.5957 33.3257 34.082 33.7861 34.3125C34.2466 34.543 34.5151 34.5044 34.7842 34.1973C35.0527 33.8896 35.9355 32.8525 36.2427 32.3911C36.5493 31.9302 36.8564 32.0073 37.2788 32.1606C37.7012 32.3145 39.9653 33.4287 40.4263 33.6592Z" clip-rule="evenodd" fill="#FFFFFF" fill-opacity="1.000000" fill-rule="evenodd"/>
</svg>
