<svg width="62.000000" height="62.000000" viewBox="0 0 62 62" fill="none" xmlns="http://www.w3.org/2000/svg" xmlns:xlink="http://www.w3.org/1999/xlink">
	<desc>
			Created with Pixso.
	</desc>
	<defs/>
	<rect width="62.000000" height="62.000000" fill="#FFFFFF" fill-opacity="0"/>
	<path d="M0 24C0 37.2548 10.7451 48 24 48C37.2549 48 48 37.2548 48 24C48 10.7452 37.2549 0 24 0C10.7451 0 0 10.7452 0 24ZM39.0623 23.0815C39.0591 30.9482 32.6594 37.3493 24.791 37.3525L24.7852 37.3525C22.3967 37.3517 20.0498 36.7524 17.9653 35.6155L10.3999 37.6L12.4246 30.2048C11.1758 28.0405 10.5186 25.5855 10.5195 23.0703C10.5227 15.2017 16.9248 8.79999 24.791 8.79999C28.6086 8.80164 32.1919 10.2878 34.8862 12.9854C37.5806 15.6828 39.0637 19.2683 39.0623 23.0815Z" clip-rule="evenodd" fill="#2B2A29" fill-opacity="1.000000" fill-rule="evenodd"/>
	<path d="M22.0869 36.3016L17.5974 37.4792L18.7959 33.1022L18.5137 32.6534C17.3264 30.7648 16.6992 28.5821 16.7002 26.3408C16.7029 19.8008 22.0239 14.4802 28.5667 14.4802C31.7351 14.4813 34.7131 15.7166 36.9526 17.9587C39.1921 20.2008 40.4248 23.1809 40.4236 26.3504C40.4209 32.8909 35.0999 38.2121 28.562 38.2121L28.5574 38.2121C26.4287 38.2112 24.3413 37.6394 22.52 36.5587L22.0869 36.3016ZM35.0684 29.3283C35.425 29.5069 35.6626 29.5961 35.7517 29.7449C35.8408 29.8936 35.8408 30.6075 35.5439 31.4406C35.2466 32.2735 33.822 33.0337 33.137 33.136C32.5227 33.2279 31.7451 33.2662 30.8909 32.9948C30.373 32.8304 29.709 32.611 28.8582 32.2436C25.281 30.699 22.9448 27.0974 22.7666 26.8593C22.5884 26.6213 21.3105 24.9257 21.3105 23.1705C21.3105 21.4154 22.2317 20.5527 22.5586 20.1957C22.8855 19.8387 23.2717 19.7495 23.5095 19.7495C23.7471 19.7495 23.9851 19.7516 24.1929 19.7621C24.2185 19.7634 24.2451 19.7632 24.2727 19.7631C24.4805 19.7618 24.7397 19.7604 24.9951 20.3742C25.2922 21.0883 26.0054 22.8434 26.0947 23.0219C26.1838 23.2004 26.2432 23.4086 26.1243 23.6467C26.0054 23.8845 25.946 24.0333 25.7678 24.2415C25.5896 24.4496 25.3933 24.7064 25.2329 24.8663C25.0544 25.0441 24.8687 25.237 25.0767 25.594C25.2847 25.951 26.0002 27.1187 27.0603 28.0642C28.4224 29.2791 29.5713 29.6556 29.928 29.8341C30.2844 30.0126 30.4924 29.9828 30.7004 29.7449C30.9084 29.5069 31.5918 28.7036 31.8293 28.3467C32.0671 27.9898 32.3049 28.0493 32.6318 28.1682C32.9587 28.2873 34.7119 29.1498 35.0684 29.3283Z" clip-rule="evenodd" fill="#2B2A29" fill-opacity="1.000000" fill-rule="evenodd"/>
</svg>
