<svg width="62.000000" height="62.000000" viewBox="0 0 62 62" fill="none" xmlns="http://www.w3.org/2000/svg" xmlns:xlink="http://www.w3.org/1999/xlink">
	<desc>
			Created with Pixso.
	</desc>
	<defs/>
	<path id="Combined-Shape" d="M0 31C0 48.1208 13.8792 62 31 62C48.1208 62 62 48.1208 62 31C62 13.8792 48.1208 0 31 0C13.8792 0 0 13.8792 0 31ZM50.4551 29.8135C50.4509 39.9748 42.1851 48.2428 32.0215 48.2469L32.0139 48.2469C28.929 48.2459 25.8975 47.4718 23.2051 46.0032L13.4331 48.5666L16.0483 39.0145C14.4351 36.2189 13.5862 33.0479 13.5876 29.799C13.5918 19.6355 21.8611 11.3666 32.0215 11.3666C36.9526 11.3688 41.5808 13.2885 45.061 16.7728C48.5415 20.2569 50.457 24.8882 50.4551 29.8135Z" clip-rule="evenodd" fill="#2B2A29" fill-opacity="1.000000" fill-rule="evenodd"/>
	<path id="Combined-Shape" d="M23.658 42.6662L17.8591 44.1873L19.407 38.5336L19.0427 37.9539C17.509 35.5145 16.699 32.6951 16.7002 29.8002C16.7036 21.3527 23.5767 14.4802 32.0278 14.4802C36.1201 14.4816 39.967 16.0773 42.8596 18.9733C45.7524 21.8693 47.3445 25.7187 47.3428 29.8126C47.3396 38.2606 40.4663 45.1339 32.0217 45.1339L32.0156 45.1339C29.2664 45.1328 26.5698 44.3942 24.2175 42.9982L23.658 42.6662ZM40.4258 33.659C40.8865 33.8896 41.1934 34.0049 41.3086 34.197C41.4236 34.389 41.4236 35.3113 41.04 36.3873C40.656 37.4632 38.8159 38.4451 37.9309 38.5773C37.1375 38.696 36.1333 38.7455 35.03 38.3948C34.3611 38.1826 33.5032 37.8992 32.4043 37.4246C27.7837 35.4295 24.7664 30.7773 24.5359 30.4698C24.3057 30.1625 22.6553 27.9723 22.6553 25.7051C22.6553 23.4382 23.8452 22.3239 24.2673 21.8627C24.6895 21.4016 25.1885 21.2863 25.4956 21.2863C25.8025 21.2863 26.1099 21.2892 26.3784 21.3027C26.4114 21.3043 26.4458 21.3041 26.4814 21.3039C26.7498 21.3023 27.0845 21.3004 27.4146 22.0933C27.7983 23.0156 28.7195 25.2827 28.8347 25.5132C28.95 25.7438 29.0266 26.0127 28.873 26.3202C28.7195 26.6274 28.6428 26.8196 28.4126 27.0885C28.1821 27.3574 27.9287 27.689 27.7217 27.8955C27.491 28.1252 27.251 28.3743 27.5198 28.8354C27.7883 29.2966 28.7126 30.8048 30.082 32.0262C31.8413 33.5955 33.3254 34.0818 33.7859 34.3123C34.2463 34.5429 34.5151 34.5043 34.7837 34.197C35.0525 33.8896 35.9353 32.8521 36.2422 32.391C36.5493 31.9301 36.8564 32.0068 37.2786 32.1605C37.7007 32.3143 39.9653 33.4285 40.4258 33.659Z" clip-rule="evenodd" fill="#2B2A29" fill-opacity="1.000000" fill-rule="evenodd"/>
</svg>
