<svg width="62.000000" height="62.000000" viewBox="0 0 62 62" fill="none" xmlns="http://www.w3.org/2000/svg" xmlns:xlink="http://www.w3.org/1999/xlink">
	<desc>
			Created with Pixso.
	</desc>
	<defs/>
	<path id="Combined-Shape" d="M31 0C13.8792 0 0 13.8792 0 31C0 48.1208 13.8792 62 31 62C48.1208 62 62 48.1208 62 31C62 13.8792 48.1208 0 31 0ZM43.9187 20.343C45.3416 20.7334 46.4622 21.8837 46.8423 23.3446C47.5334 25.9923 47.5334 31.5167 47.5334 31.5167C47.5334 31.5167 47.5334 37.041 46.8423 39.6888C46.4622 41.1497 45.3416 42.3001 43.9187 42.6907C41.3403 43.4 31 43.4 31 43.4C31 43.4 20.6597 43.4 18.0811 42.6907C16.6582 42.3001 15.5378 41.1497 15.1575 39.6888C14.4666 37.041 14.4666 31.5167 14.4666 31.5167C14.4666 31.5167 14.4666 25.9923 15.1575 23.3446C15.5378 21.8837 16.6582 20.7334 18.0811 20.343C20.6597 19.6334 31 19.6334 31 19.6334C31 19.6334 41.3403 19.6334 43.9187 20.343Z" clip-rule="evenodd" fill="#2B2A29" fill-opacity="1.000000" fill-rule="evenodd"/>
	<path id="Fill-2" d="M27.9 37.2L27.9 26.86L36.16 32.03L27.9 37.2Z" fill="#2B2A29" fill-opacity="1.000000" fill-rule="nonzero"/>
</svg>
