<svg width="62.000000" height="62.000000" viewBox="0 0 62 62" fill="none" xmlns="http://www.w3.org/2000/svg" xmlns:xlink="http://www.w3.org/1999/xlink">
	<desc>
			Created with Pixso.
	</desc>
	<defs/>
	<rect width="62.000000" height="62.000000" fill="#FFFFFF" fill-opacity="0"/>
	<path d="M24 0C10.7451 0 0 10.7452 0 24C0 37.2548 10.7451 48 24 48C37.2549 48 48 37.2548 48 24C48 10.7452 37.2549 0 24 0ZM34.0017 15.7493C35.103 16.0516 35.9707 16.9422 36.2651 18.0732C36.8 20.123 36.8 24.4 36.8 24.4C36.8 24.4 36.8 28.6768 36.2651 30.7268C35.9707 31.8578 35.103 32.7484 34.0017 33.0508C32.0054 33.6 24 33.6 24 33.6C24 33.6 15.9946 33.6 13.9983 33.0508C12.8967 32.7484 12.0293 31.8578 11.7349 30.7268C11.2 28.6768 11.2 24.4 11.2 24.4C11.2 24.4 11.2 20.123 11.7349 18.0732C12.0293 16.9422 12.8967 16.0516 13.9983 15.7493C15.9946 15.2 24 15.2 24 15.2C24 15.2 32.0054 15.2 34.0017 15.7493Z" clip-rule="evenodd" fill="#2B2A29" fill-opacity="1.000000" fill-rule="evenodd"/>
	<path d="M27.9 37.2L27.9 26.86L36.16 32.03L27.9 37.2Z" fill="#2B2A29" fill-opacity="1.000000" fill-rule="nonzero"/>
</svg>
