<svg width="62.000000" height="62.000000" viewBox="0 0 62 62" fill="none" xmlns="http://www.w3.org/2000/svg" xmlns:xlink="http://www.w3.org/1999/xlink">
	<desc>
			Created with Pixso.
	</desc>
	<defs/>
	<path id="Combined-Shape" d="M31 0C13.8794 0 0 13.8794 0 31C0 48.1206 13.8794 62 31 62C48.1206 62 62 48.1206 62 31C62 13.8794 48.1206 0 31 0ZM43.9189 20.3433C45.3413 20.7339 46.4619 21.8843 46.8423 23.3452C47.5332 25.9927 47.5332 31.5171 47.5332 31.5171C47.5332 31.5171 47.5332 37.0415 46.8423 39.689C46.4619 41.1499 45.3413 42.3003 43.9189 42.6909C41.3403 43.4004 31 43.4004 31 43.4004C31 43.4004 20.6597 43.4004 18.0811 42.6909C16.6582 42.3003 15.5376 41.1499 15.1577 39.689C14.4668 37.0415 14.4668 31.5171 14.4668 31.5171C14.4668 31.5171 14.4668 25.9927 15.1577 23.3452C15.5376 21.8843 16.6582 20.7339 18.0811 20.3433C20.6597 19.6338 31 19.6338 31 19.6338C31 19.6338 41.3403 19.6338 43.9189 20.3433Z" clip-rule="evenodd" fill="#FFFFFF" fill-opacity="1.000000" fill-rule="evenodd"/>
	<path id="Fill-2" d="M27.9 37.19L27.9 26.86L36.16 32.03L27.9 37.19Z" fill="#FFFFFF" fill-opacity="1.000000" fill-rule="nonzero"/>
</svg>
